<svg xmlns="http://www.w3.org/2000/svg" width="1280" height="720" viewBox="0 0 1280 720">
  <defs>
    <pattern id="dots6" width="20" height="20" patternUnits="userSpaceOnUse">
      <circle cx="1.5" cy="1.5" r="1.1" fill="#D6D0C4" opacity="0.55"/>
    </pattern>
    <filter id="s6" x="-20%" y="-20%" width="140%" height="140%">
      <feDropShadow dx="0" dy="7" stdDeviation="9" flood-color="#8B7355" flood-opacity="0.16"/>
    </filter>
    <linearGradient id="paper6" x1="0" y1="0" x2="0" y2="1">
      <stop offset="0%" stop-color="#FDFBF7"/>
      <stop offset="100%" stop-color="#F6F1E7"/>
    </linearGradient>
  </defs>
  <rect width="1280" height="720" fill="url(#paper6)"/>
  <rect width="1280" height="720" fill="url(#dots6)"/>

  <g filter="url(#s6)" transform="translate(360 36) rotate(-1)">
    <rect width="560" height="62" rx="10" fill="#D7EBFF"/>
    <text x="280" y="41" text-anchor="middle" font-family="PingFang SC, Hiragino Sans GB, Microsoft YaHei, sans-serif" font-size="26" font-weight="700" fill="#1E3A5F">配置端 ⇄ 展示端：契约并行</text>
  </g>

  <g font-family="PingFang SC, Hiragino Sans GB, Microsoft YaHei, sans-serif">
    <g filter="url(#s6)" transform="translate(100 130) rotate(-1.5)">
      <rect width="380" height="360" rx="14" fill="#FFF4D6"/>
      <rect x="0" y="0" width="380" height="56" rx="14" fill="#FFE4A3"/>
      <rect x="0" y="42" width="380" height="14" fill="#FFE4A3"/>
      <text x="190" y="36" text-anchor="middle" font-size="22" font-weight="700" fill="#8A5A00">apps/admin（配置端）</text>
      <text x="190" y="120" text-anchor="middle" font-size="17" fill="#5C4A2A">7-Tab 配置骨架</text>
      <text x="190" y="160" text-anchor="middle" font-size="17" fill="#5C4A2A">卡片编辑器 + 上传桶</text>
      <text x="190" y="200" text-anchor="middle" font-size="17" fill="#5C4A2A">AI 助教 / 智能体勾选</text>
      <text x="190" y="260" text-anchor="middle" font-size="17" fill="#9A9080">保存草稿 / 发布更新</text>
    </g>

    <g filter="url(#s6)" transform="translate(800 130) rotate(1)">
      <rect width="380" height="360" rx="14" fill="#E6F4DC"/>
      <rect x="0" y="0" width="380" height="56" rx="14" fill="#CDEAB5"/>
      <rect x="0" y="42" width="380" height="14" fill="#CDEAB5"/>
      <text x="190" y="36" text-anchor="middle" font-size="22" font-weight="700" fill="#38600F">apps/www（展示端）</text>
      <text x="190" y="120" text-anchor="middle" font-size="17" fill="#2F5014">Hero 首屏动效</text>
      <text x="190" y="160" text-anchor="middle" font-size="17" fill="#2F5014">course/[id] 六 tab 路由</text>
      <text x="190" y="200" text-anchor="middle" font-size="17" fill="#2F5014">SideNav 吸顶高亮</text>
      <text x="190" y="260" text-anchor="middle" font-size="17" fill="#7A9A5F">SSR 渲染</text>
    </g>

    <g filter="url(#s6)" transform="translate(440 300) rotate(-0.5)">
      <rect width="400" height="150" rx="14" fill="#FFFBF0"/>
      <circle cx="60" cy="52" r="24" fill="#3E94FF"/>
      <text x="60" y="61" text-anchor="middle" font-size="20" font-weight="700" fill="#fff">契</text>
      <text x="110" y="42" font-size="20" font-weight="700" fill="#2C2416">CourseDisplayConfig</text>
      <text x="110" y="72" font-size="15" fill="#8A7A62">类型 + 默认值 + 占位实现</text>
      <text x="110" y="98" font-size="15" fill="#8A7A62">后端后补齐，前端互不阻塞</text>
    </g>

    <g stroke="#8B7355" stroke-width="2.5">
      <line x1="480" y1="290" x2="520" y2="318" marker-end="url(#arr6)"/>
      <line x1="800" y1="290" x2="760" y2="318" marker-end="url(#arr6)"/>
    </g>
  </g>

  <g filter="url(#s6)" transform="translate(360 540) rotate(-1)">
    <rect width="560" height="120" rx="12" fill="#FFFBF0" stroke="#F0D9A0" stroke-width="1.5"/>
    <text x="280" y="58" text-anchor="middle" font-family="PingFang SC, sans-serif" font-size="18" fill="#9A9080">配图占位（wireframe）</text>
    <text x="280" y="88" text-anchor="middle" font-family="PingFang SC, sans-serif" font-size="14" fill="#B0A695">提示词：content-policy/prompts/vibe-coding/06-framework-contract-duo.md</text>
  </g>
</svg>